<svg xmlns="http://www.w3.org/2000/svg" version="1.1" xmlns:xlink="http://www.w3.org/1999/xlink" xmlns:svgjs="http://svgjs.com/svgjs" width="500" height="500"><svg viewBox="0 0 800 800" xmlns="http://www.w3.org/2000/svg"><path transform="" d="M 287.762 688.897 A 45.5 45.5 0 0 1 242.262 734.397 A 45.5 45.5 0 0 1 196.762 688.897 A 45.5 45.5 0 0 1 242.262 643.397 A 45.5 45.5 0 0 1 287.762 688.897 Z" fill-opacity="1" stroke-opacity="1" style="stroke-width: 3; fill: #ceff00; stroke: #ceff00;" stroke-dashoffset="0px" stroke-dasharray="285.92547607421875px 285.92547607421875px"></path><path transform="" d="M 551.238 63.278 A 45.5 45.5 0 0 1 505.738 108.778 A 45.5 45.5 0 0 1 460.238 63.278 A 45.5 45.5 0 0 1 505.738 17.778 A 45.5 45.5 0 0 1 551.238 63.278 Z" fill-opacity="1" stroke-opacity="1" style="stroke-width: 3; fill: #ceff00; stroke: #ceff00;" stroke-dashoffset="0px" stroke-dasharray="285.925537109375px 285.925537109375px"></path><path transform="matrix(0, -1, 1, 0, -27.226006, 892.569031)" d="M 156.545 337.231 L 248.461 337.231 L 248.461 569.272 C 248.461 598.86 246.32 619.811 242.04 632.126 C 237.76 644.442 229.838 654.43 218.273 662.089 C 206.708 669.748 190.188 673.578 168.712 673.578 C 150.989 673.578 128.987 670.95 102.704 665.694 L 116.446 599.009 C 123.805 600.512 129.211 601.263 132.667 601.263 C 140.476 601.263 146.408 598.597 150.463 593.265 C 154.519 587.933 156.545 577.307 156.545 561.387 L 156.545 337.231 Z M 506.114 246.217 L 506.114 576.481 L 420.28 576.481 L 420.28 541.112 C 408.266 556.13 397.303 566.269 387.39 571.526 C 374.173 578.434 359.455 581.888 343.234 581.888 C 310.643 581.888 285.749 569.498 268.553 544.716 C 251.356 519.935 242.758 489.822 242.758 454.379 C 242.758 414.729 252.257 384.39 271.257 363.364 C 290.255 342.338 314.399 331.824 343.684 331.824 C 357.952 331.824 370.907 334.227 382.546 339.034 C 394.186 343.839 404.511 351.048 413.522 360.66 L 413.522 246.217 L 506.114 246.217 Z M 414.198 456.181 C 414.198 437.407 410.219 423.402 402.258 414.164 C 394.298 404.929 384.235 400.31 372.07 400.31 C 361.407 400.31 352.472 404.741 345.262 413.602 C 338.053 422.463 334.448 437.332 334.448 458.207 C 334.448 477.732 338.166 492.038 345.599 501.125 C 353.034 510.21 362.232 514.754 373.197 514.754 C 384.912 514.754 394.675 510.173 402.484 501.012 C 410.294 491.85 414.198 476.906 414.198 456.181 Z M 509.648 337.231 L 595.03 337.231 L 595.03 376.204 C 607.795 360.286 620.711 348.907 633.779 342.074 C 646.845 335.241 662.765 331.824 681.537 331.824 C 706.921 331.824 726.782 339.371 741.126 354.465 C 755.468 369.559 762.639 392.877 762.639 424.416 L 762.639 576.481 L 670.499 576.481 L 670.499 444.915 C 670.499 429.898 667.721 419.272 662.163 413.039 C 656.607 406.806 648.798 403.689 638.734 403.689 C 627.621 403.689 618.609 407.894 611.701 416.305 C 604.792 424.715 601.337 439.809 601.337 461.588 L 601.337 576.481 L 509.648 576.481 L 509.648 337.231 Z" fill-opacity="1" stroke-opacity="1" style="stroke-width: 3; fill: rgb(240, 240, 210); stroke: rgb(240, 240, 210);" stroke-dashoffset="0px" stroke-dasharray="3735.368896484375px 3735.368896484375px"></path></svg><style>@media (prefers-color-scheme: light) { :root { filter: none; } }
@media (prefers-color-scheme: dark) { :root { filter: contrast(0.3846153846153846) brightness(4.5); } }
</style></svg>